<svg xmlns="http://www.w3.org/2000/svg" viewBox="0 0 1600 520"><title>Decorative explorer space artwork, not experiment imagery</title><defs>
<radialGradient id="cloud"><stop stop-color="#4bc5dc" stop-opacity=".75"/><stop offset=".45" stop-color="#224777" stop-opacity=".6"/><stop offset="1" stop-color="#091426" stop-opacity="0"/></radialGradient>
<radialGradient id="amber"><stop stop-color="#ffc69d" stop-opacity=".9"/><stop offset=".28" stop-color="#a66b69" stop-opacity=".6"/><stop offset="1" stop-color="#102441" stop-opacity="0"/></radialGradient>
<radialGradient id="planet" cx=".26" cy=".15"><stop stop-color="#a3c6d9"/><stop offset=".18" stop-color="#375375"/><stop offset=".58" stop-color="#0d1b31"/><stop offset="1" stop-color="#020610"/></radialGradient>
<radialGradient id="earth" cx=".35" cy=".3"><stop stop-color="#8cbcd7"/><stop offset=".28" stop-color="#1d648e"/><stop offset=".65" stop-color="#072842"/><stop offset="1" stop-color="#010915"/></radialGradient>
<filter id="nebula" x="-30%" y="-50%" width="160%" height="200%"><feTurbulence type="fractalNoise" baseFrequency=".006 .014" numOctaves="3" seed="19" result="noise"/><feDisplacementMap in="SourceGraphic" in2="noise" scale="140"/><feGaussianBlur stdDeviation="8"/></filter>
<filter id="glow"><feGaussianBlur stdDeviation="9"/></filter>
<linearGradient id="rock" x2="0" y2="1"><stop stop-color="#60718b"/><stop offset="1" stop-color="#07101f"/></linearGradient>
</defs><rect width="1600" height="520" fill="#030a15"/><circle cx="444" cy="13" r="1" fill="#6ec8ed" opacity="0.33"/><circle cx="12" cy="340" r="0.5" fill="#f7d4b0" opacity="0.34"/><circle cx="1555" cy="498" r="1" fill="#b8d6ff" opacity="0.76"/><circle cx="280" cy="168" r="0.5" fill="#f7d4b0" opacity="0.65"/><circle cx="292" cy="91" r="1.3" fill="#b8d6ff" opacity="0.23"/><circle cx="88" cy="245" r="1" fill="#6ec8ed" opacity="0.72"/><circle cx="866" cy="304" r="0.7" fill="#b8d6ff" opacity="0.50"/><circle cx="191" cy="313" r="0.5" fill="#6ec8ed" opacity="0.55"/><circle cx="48" cy="172" r="1" fill="#b8d6ff" opacity="0.40"/><circle cx="686" cy="300" r="1" fill="#6ec8ed" opacity="0.47"/><circle cx="1538" cy="152" r="0.7" fill="#b8d6ff" opacity="0.62"/><circle cx="779" cy="283" r="0.7" fill="#6ec8ed" opacity="0.24"/><circle cx="434" cy="53" r="0.7" fill="#6ec8ed" opacity="0.79"/><circle cx="1411" cy="165" r="1.3" fill="#6ec8ed" opacity="0.39"/><circle cx="1354" cy="495" r="0.7" fill="#b8d6ff" opacity="0.64"/><circle cx="135" cy="480" r="1" fill="#b8d6ff" opacity="0.38"/><circle cx="969" cy="220" r="1" fill="#b8d6ff" opacity="0.44"/><circle cx="267" cy="184" r="1.3" fill="#f7d4b0" opacity="0.28"/><circle cx="1204" cy="408" r="1" fill="#f7d4b0" opacity="0.61"/><circle cx="434" cy="165" r="1" fill="#b8d6ff" opacity="0.66"/><circle cx="354" cy="400" r="1" fill="#b8d6ff" opacity="0.44"/><circle cx="641" cy="86" r="1" fill="#b8d6ff" opacity="0.34"/><circle cx="1527" cy="163" r="0.5" fill="#b8d6ff" opacity="0.40"/><circle cx="992" cy="134" r="1.3" fill="#f7d4b0" opacity="0.55"/><circle cx="467" cy="506" r="1" fill="#b8d6ff" opacity="0.62"/><circle cx="40" cy="167" r="1" fill="#f7d4b0" opacity="0.56"/><circle cx="1046" cy="120" r="1" fill="#b8d6ff" opacity="0.79"/><circle cx="489" cy="265" r="1.3" fill="#b8d6ff" opacity="0.80"/><circle cx="1443" cy="10" r="0.5" fill="#f7d4b0" opacity="0.61"/><circle cx="80" cy="346" r="1" fill="#b8d6ff" opacity="0.67"/><circle cx="652" cy="474" r="0.5" fill="#6ec8ed" opacity="0.41"/><circle cx="1055" cy="245" r="1.3" fill="#b8d6ff" opacity="0.44"/><circle cx="285" cy="285" r="0.7" fill="#f7d4b0" opacity="0.49"/><circle cx="629" cy="282" r="1" fill="#f7d4b0" opacity="0.73"/><circle cx="1272" cy="427" r="1" fill="#f7d4b0" opacity="0.32"/><circle cx="443" cy="372" r="0.7" fill="#f7d4b0" opacity="0.49"/><circle cx="100" cy="122" r="1.3" fill="#b8d6ff" opacity="0.57"/><circle cx="1024" cy="29" r="0.5" fill="#f7d4b0" opacity="0.49"/><circle cx="367" cy="290" r="1.3" fill="#6ec8ed" opacity="0.76"/><circle cx="707" cy="420" r="0.5" fill="#f7d4b0" opacity="0.77"/><circle cx="1347" cy="170" r="0.7" fill="#f7d4b0" opacity="0.40"/><circle cx="1269" cy="370" r="0.5" fill="#b8d6ff" opacity="0.22"/><circle cx="439" cy="447" r="0.5" fill="#f7d4b0" opacity="0.54"/><circle cx="1420" cy="225" r="1.3" fill="#6ec8ed" opacity="0.50"/><circle cx="1514" cy="305" r="1" fill="#f7d4b0" opacity="0.54"/><circle cx="242" cy="399" r="0.7" fill="#b8d6ff" opacity="0.29"/><circle cx="435" cy="236" r="0.5" fill="#6ec8ed" opacity="0.41"/><circle cx="1325" cy="82" r="0.5" fill="#b8d6ff" opacity="0.51"/><circle cx="158" cy="376" r="1.3" fill="#f7d4b0" opacity="0.46"/><circle cx="764" cy="285" r="1.3" fill="#6ec8ed" opacity="0.72"/><circle cx="306" cy="284" r="0.5" fill="#f7d4b0" opacity="0.46"/><circle cx="1066" cy="159" r="1" fill="#b8d6ff" opacity="0.73"/><circle cx="1283" cy="442" r="0.5" fill="#f7d4b0" opacity="0.38"/><circle cx="986" cy="412" r="0.5" fill="#f7d4b0" opacity="0.41"/><circle cx="450" cy="137" r="1.3" fill="#6ec8ed" opacity="0.31"/><circle cx="21" cy="309" r="1.3" fill="#f7d4b0" opacity="0.78"/><circle cx="905" cy="516" r="0.5" fill="#b8d6ff" opacity="0.59"/><circle cx="134" cy="332" r="1.3" fill="#6ec8ed" opacity="0.27"/><circle cx="916" cy="436" r="0.5" fill="#b8d6ff" opacity="0.41"/><circle cx="218" cy="420" r="1.3" fill="#f7d4b0" opacity="0.28"/><circle cx="214" cy="244" r="0.7" fill="#b8d6ff" opacity="0.52"/><circle cx="1188" cy="364" r="0.7" fill="#b8d6ff" opacity="0.44"/><circle cx="182" cy="106" r="1" fill="#6ec8ed" opacity="0.61"/><circle cx="538" cy="165" r="0.7" fill="#6ec8ed" opacity="0.21"/><circle cx="636" cy="296" r="1.3" fill="#6ec8ed" opacity="0.57"/><circle cx="1304" cy="110" r="0.5" fill="#f7d4b0" opacity="0.45"/><circle cx="1528" cy="78" r="0.5" fill="#b8d6ff" opacity="0.75"/><circle cx="865" cy="448" r="1.3" fill="#b8d6ff" opacity="0.48"/><circle cx="705" cy="17" r="1" fill="#f7d4b0" opacity="0.64"/><circle cx="1588" cy="281" r="1" fill="#f7d4b0" opacity="0.56"/><circle cx="675" cy="475" r="0.7" fill="#b8d6ff" opacity="0.26"/><circle cx="318" cy="12" r="0.7" fill="#b8d6ff" opacity="0.74"/><circle cx="194" cy="209" r="1" fill="#6ec8ed" opacity="0.74"/><circle cx="827" cy="93" r="1" fill="#f7d4b0" opacity="0.65"/><circle cx="383" cy="107" r="1.3" fill="#b8d6ff" opacity="0.25"/><circle cx="120" cy="289" r="1" fill="#6ec8ed" opacity="0.64"/><circle cx="889" cy="352" r="1.3" fill="#b8d6ff" opacity="0.58"/><circle cx="631" cy="292" r="1" fill="#f7d4b0" opacity="0.62"/><circle cx="280" cy="464" r="0.5" fill="#f7d4b0" opacity="0.26"/><circle cx="1523" cy="396" r="1.3" fill="#f7d4b0" opacity="0.35"/><circle cx="834" cy="398" r="1" fill="#6ec8ed" opacity="0.65"/><circle cx="430" cy="187" r="0.5" fill="#f7d4b0" opacity="0.64"/><circle cx="1109" cy="263" r="0.7" fill="#b8d6ff" opacity="0.78"/><circle cx="572" cy="414" r="0.5" fill="#b8d6ff" opacity="0.54"/><circle cx="502" cy="24" r="0.5" fill="#6ec8ed" opacity="0.29"/><circle cx="48" cy="333" r="0.7" fill="#f7d4b0" opacity="0.43"/><circle cx="664" cy="59" r="0.5" fill="#b8d6ff" opacity="0.71"/><circle cx="189" cy="263" r="1.3" fill="#6ec8ed" opacity="0.35"/><circle cx="1298" cy="340" r="1.3" fill="#6ec8ed" opacity="0.73"/><circle cx="888" cy="254" r="0.5" fill="#b8d6ff" opacity="0.24"/><circle cx="1126" cy="422" r="1" fill="#6ec8ed" opacity="0.47"/><circle cx="389" cy="487" r="1" fill="#f7d4b0" opacity="0.23"/><circle cx="1161" cy="476" r="0.7" fill="#b8d6ff" opacity="0.38"/><circle cx="283" cy="149" r="1" fill="#b8d6ff" opacity="0.26"/><circle cx="1085" cy="293" r="0.7" fill="#6ec8ed" opacity="0.53"/><circle cx="1583" cy="474" r="1.3" fill="#f7d4b0" opacity="0.71"/><circle cx="336" cy="24" r="1.3" fill="#b8d6ff" opacity="0.43"/><circle cx="147" cy="73" r="1" fill="#f7d4b0" opacity="0.66"/><circle cx="1333" cy="342" r="1.3" fill="#b8d6ff" opacity="0.49"/><circle cx="849" cy="209" r="0.7" fill="#b8d6ff" opacity="0.63"/><circle cx="799" cy="316" r="0.5" fill="#6ec8ed" opacity="0.27"/><circle cx="843" cy="221" r="0.5" fill="#f7d4b0" opacity="0.37"/><circle cx="1378" cy="496" r="1" fill="#6ec8ed" opacity="0.70"/><circle cx="572" cy="153" r="1.3" fill="#6ec8ed" opacity="0.59"/><circle cx="476" cy="187" r="0.7" fill="#b8d6ff" opacity="0.33"/><circle cx="1188" cy="264" r="1" fill="#b8d6ff" opacity="0.38"/><circle cx="842" cy="5" r="0.5" fill="#f7d4b0" opacity="0.62"/><circle cx="225" cy="151" r="0.7" fill="#b8d6ff" opacity="0.60"/><circle cx="254" cy="154" r="1" fill="#b8d6ff" opacity="0.60"/><circle cx="324" cy="507" r="0.5" fill="#6ec8ed" opacity="0.56"/><circle cx="895" cy="142" r="0.7" fill="#b8d6ff" opacity="0.65"/><circle cx="1049" cy="324" r="0.7" fill="#6ec8ed" opacity="0.67"/><circle cx="260" cy="126" r="1" fill="#b8d6ff" opacity="0.56"/><circle cx="513" cy="303" r="0.7" fill="#6ec8ed" opacity="0.43"/><circle cx="5" cy="20" r="0.7" fill="#6ec8ed" opacity="0.79"/><circle cx="699" cy="423" r="1.3" fill="#f7d4b0" opacity="0.27"/><circle cx="1236" cy="236" r="1" fill="#6ec8ed" opacity="0.71"/><circle cx="870" cy="149" r="1.3" fill="#f7d4b0" opacity="0.79"/><circle cx="1242" cy="497" r="1.3" fill="#b8d6ff" opacity="0.46"/><circle cx="452" cy="394" r="0.5" fill="#f7d4b0" opacity="0.47"/><circle cx="318" cy="1" r="1.3" fill="#f7d4b0" opacity="0.37"/><circle cx="1096" cy="221" r="0.7" fill="#f7d4b0" opacity="0.59"/><circle cx="1295" cy="483" r="1" fill="#b8d6ff" opacity="0.21"/><circle cx="201" cy="424" r="0.7" fill="#f7d4b0" opacity="0.40"/><circle cx="377" cy="92" r="1" fill="#b8d6ff" opacity="0.69"/><circle cx="69" cy="37" r="1.3" fill="#f7d4b0" opacity="0.55"/><circle cx="1414" cy="457" r="1.3" fill="#6ec8ed" opacity="0.38"/><circle cx="863" cy="144" r="0.7" fill="#f7d4b0" opacity="0.46"/><circle cx="1147" cy="221" r="1.3" fill="#6ec8ed" opacity="0.55"/><circle cx="684" cy="497" r="0.7" fill="#f7d4b0" opacity="0.43"/><circle cx="969" cy="223" r="1" fill="#b8d6ff" opacity="0.41"/><circle cx="407" cy="307" r="0.5" fill="#b8d6ff" opacity="0.44"/><circle cx="106" cy="406" r="0.5" fill="#6ec8ed" opacity="0.33"/><circle cx="1509" cy="115" r="1" fill="#6ec8ed" opacity="0.60"/><circle cx="846" cy="426" r="1.3" fill="#6ec8ed" opacity="0.76"/><circle cx="365" cy="381" r="0.5" fill="#b8d6ff" opacity="0.34"/><circle cx="742" cy="7" r="0.5" fill="#6ec8ed" opacity="0.53"/><circle cx="846" cy="341" r="1.3" fill="#b8d6ff" opacity="0.52"/><circle cx="210" cy="421" r="0.5" fill="#b8d6ff" opacity="0.36"/><circle cx="1176" cy="31" r="1.3" fill="#6ec8ed" opacity="0.28"/><circle cx="793" cy="241" r="1" fill="#b8d6ff" opacity="0.55"/><circle cx="1328" cy="207" r="1" fill="#b8d6ff" opacity="0.48"/><circle cx="1179" cy="19" r="1.3" fill="#6ec8ed" opacity="0.78"/><circle cx="95" cy="345" r="1" fill="#f7d4b0" opacity="0.78"/><circle cx="236" cy="45" r="0.7" fill="#b8d6ff" opacity="0.32"/><circle cx="546" cy="171" r="0.5" fill="#b8d6ff" opacity="0.44"/><circle cx="1506" cy="78" r="1" fill="#f7d4b0" opacity="0.49"/><circle cx="815" cy="344" r="1" fill="#f7d4b0" opacity="0.43"/><circle cx="1173" cy="368" r="0.5" fill="#6ec8ed" opacity="0.24"/><circle cx="707" cy="287" r="0.5" fill="#f7d4b0" opacity="0.30"/><circle cx="381" cy="513" r="0.7" fill="#f7d4b0" opacity="0.22"/><circle cx="1487" cy="140" r="1" fill="#6ec8ed" opacity="0.37"/><circle cx="100" cy="254" r="1" fill="#6ec8ed" opacity="0.48"/><circle cx="1572" cy="346" r="1" fill="#f7d4b0" opacity="0.49"/><circle cx="1505" cy="183" r="1.3" fill="#b8d6ff" opacity="0.21"/><circle cx="857" cy="297" r="1.3" fill="#b8d6ff" opacity="0.39"/><circle cx="436" cy="462" r="1" fill="#f7d4b0" opacity="0.56"/><circle cx="1467" cy="126" r="0.7" fill="#b8d6ff" opacity="0.21"/><circle cx="512" cy="311" r="0.7" fill="#f7d4b0" opacity="0.37"/><circle cx="1477" cy="34" r="1.3" fill="#f7d4b0" opacity="0.29"/><circle cx="184" cy="374" r="0.5" fill="#f7d4b0" opacity="0.29"/><circle cx="466" cy="207" r="1" fill="#b8d6ff" opacity="0.64"/><circle cx="601" cy="488" r="0.5" fill="#f7d4b0" opacity="0.30"/><circle cx="1540" cy="203" r="1" fill="#b8d6ff" opacity="0.52"/><circle cx="13" cy="137" r="1.3" fill="#f7d4b0" opacity="0.23"/><circle cx="792" cy="183" r="0.7" fill="#b8d6ff" opacity="0.60"/><circle cx="906" cy="185" r="1.3" fill="#6ec8ed" opacity="0.35"/><circle cx="1325" cy="76" r="0.5" fill="#6ec8ed" opacity="0.59"/><circle cx="1274" cy="386" r="0.5" fill="#b8d6ff" opacity="0.56"/><circle cx="1407" cy="178" r="1.3" fill="#b8d6ff" opacity="0.46"/><circle cx="777" cy="293" r="0.7" fill="#f7d4b0" opacity="0.70"/><circle cx="338" cy="274" r="1.3" fill="#b8d6ff" opacity="0.38"/><circle cx="1257" cy="404" r="0.5" fill="#b8d6ff" opacity="0.61"/><circle cx="206" cy="443" r="0.5" fill="#b8d6ff" opacity="0.23"/><circle cx="963" cy="164" r="1.3" fill="#b8d6ff" opacity="0.48"/><circle cx="1395" cy="6" r="0.7" fill="#f7d4b0" opacity="0.70"/><circle cx="1053" cy="278" r="0.5" fill="#f7d4b0" opacity="0.73"/><circle cx="1236" cy="479" r="1.3" fill="#f7d4b0" opacity="0.26"/><circle cx="31" cy="442" r="1" fill="#b8d6ff" opacity="0.80"/><circle cx="751" cy="457" r="0.7" fill="#f7d4b0" opacity="0.44"/><circle cx="772" cy="31" r="1" fill="#f7d4b0" opacity="0.34"/><circle cx="347" cy="229" r="1.3" fill="#f7d4b0" opacity="0.30"/><circle cx="1406" cy="512" r="1.3" fill="#f7d4b0" opacity="0.32"/><circle cx="1020" cy="372" r="1.3" fill="#f7d4b0" opacity="0.44"/><circle cx="1126" cy="408" r="0.5" fill="#b8d6ff" opacity="0.72"/><circle cx="1085" cy="90" r="0.7" fill="#6ec8ed" opacity="0.69"/><circle cx="1125" cy="78" r="0.5" fill="#6ec8ed" opacity="0.58"/><circle cx="91" cy="118" r="1.3" fill="#6ec8ed" opacity="0.57"/><circle cx="1093" cy="28" r="0.7" fill="#6ec8ed" opacity="0.54"/><circle cx="870" cy="475" r="0.7" fill="#b8d6ff" opacity="0.50"/><circle cx="531" cy="395" r="1" fill="#f7d4b0" opacity="0.25"/><circle cx="284" cy="296" r="1.3" fill="#b8d6ff" opacity="0.43"/><circle cx="590" cy="434" r="1" fill="#6ec8ed" opacity="0.40"/><circle cx="987" cy="165" r="1.3" fill="#b8d6ff" opacity="0.57"/><circle cx="128" cy="403" r="1.3" fill="#b8d6ff" opacity="0.32"/><circle cx="1345" cy="31" r="0.7" fill="#b8d6ff" opacity="0.54"/><circle cx="1456" cy="90" r="1" fill="#6ec8ed" opacity="0.46"/><circle cx="1291" cy="449" r="1.3" fill="#6ec8ed" opacity="0.47"/><circle cx="1242" cy="170" r="1" fill="#6ec8ed" opacity="0.39"/><circle cx="959" cy="440" r="0.5" fill="#6ec8ed" opacity="0.62"/><circle cx="476" cy="319" r="0.5" fill="#f7d4b0" opacity="0.60"/><circle cx="97" cy="333" r="0.5" fill="#6ec8ed" opacity="0.31"/><circle cx="886" cy="423" r="0.5" fill="#b8d6ff" opacity="0.48"/><circle cx="664" cy="222" r="1" fill="#b8d6ff" opacity="0.77"/><circle cx="786" cy="404" r="0.5" fill="#f7d4b0" opacity="0.38"/><circle cx="411" cy="358" r="0.5" fill="#f7d4b0" opacity="0.69"/><circle cx="1470" cy="167" r="1" fill="#6ec8ed" opacity="0.74"/><circle cx="323" cy="12" r="1.3" fill="#f7d4b0" opacity="0.74"/><circle cx="243" cy="61" r="1" fill="#b8d6ff" opacity="0.28"/><circle cx="297" cy="22" r="1" fill="#f7d4b0" opacity="0.44"/><circle cx="1193" cy="168" r="0.5" fill="#b8d6ff" opacity="0.25"/><circle cx="1426" cy="519" r="0.5" fill="#b8d6ff" opacity="0.24"/><circle cx="1562" cy="301" r="0.5" fill="#6ec8ed" opacity="0.26"/><circle cx="928" cy="209" r="0.5" fill="#6ec8ed" opacity="0.36"/><circle cx="1201" cy="18" r="0.7" fill="#f7d4b0" opacity="0.49"/><circle cx="471" cy="42" r="0.7" fill="#b8d6ff" opacity="0.40"/><circle cx="1446" cy="299" r="1.3" fill="#b8d6ff" opacity="0.74"/><circle cx="1195" cy="290" r="1.3" fill="#b8d6ff" opacity="0.60"/><circle cx="452" cy="326" r="0.5" fill="#b8d6ff" opacity="0.22"/><circle cx="546" cy="230" r="1" fill="#f7d4b0" opacity="0.72"/><circle cx="771" cy="256" r="1.3" fill="#b8d6ff" opacity="0.77"/><circle cx="1430" cy="316" r="0.7" fill="#b8d6ff" opacity="0.59"/><circle cx="949" cy="5" r="0.5" fill="#b8d6ff" opacity="0.62"/><circle cx="1068" cy="378" r="0.5" fill="#f7d4b0" opacity="0.34"/><circle cx="1221" cy="59" r="0.7" fill="#6ec8ed" opacity="0.27"/><circle cx="158" cy="487" r="1" fill="#6ec8ed" opacity="0.33"/><circle cx="1526" cy="167" r="0.7" fill="#f7d4b0" opacity="0.44"/><circle cx="199" cy="318" r="0.5" fill="#f7d4b0" opacity="0.23"/><circle cx="36" cy="516" r="0.7" fill="#b8d6ff" opacity="0.60"/><circle cx="1458" cy="327" r="1" fill="#6ec8ed" opacity="0.68"/><g filter="url(#nebula)"><ellipse cx="1130" cy="210" rx="440" ry="260" fill="url(#cloud)"/><ellipse cx="1190" cy="170" rx="250" ry="270" fill="url(#amber)"/><ellipse cx="820" cy="270" rx="200" ry="190" fill="url(#cloud)"/></g></svg>